<svg width="20" height="20" viewBox="0 0 20 20" fill="none" xmlns="http://www.w3.org/2000/svg">
<path d="M16.6665 5H3.33317C2.4127 5 1.6665 5.74619 1.6665 6.66667V13.3333C1.6665 14.2538 2.4127 15 3.33317 15H16.6665C17.587 15 18.3332 14.2538 18.3332 13.3333V6.66667C18.3332 5.74619 17.587 5 16.6665 5Z" stroke="#90A1B9" stroke-width="1.66667" stroke-linecap="round" stroke-linejoin="round"/>
<path d="M10.0002 11.6666C10.9206 11.6666 11.6668 10.9204 11.6668 9.99992C11.6668 9.07944 10.9206 8.33325 10.0002 8.33325C9.07969 8.33325 8.3335 9.07944 8.3335 9.99992C8.3335 10.9204 9.07969 11.6666 10.0002 11.6666Z" stroke="#90A1B9" stroke-width="1.66667" stroke-linecap="round" stroke-linejoin="round"/>
<path d="M5 10H5.00833M15 10H15.0083" stroke="#90A1B9" stroke-width="1.66667" stroke-linecap="round" stroke-linejoin="round"/>
</svg>
