<svg width="20" height="20" viewBox="0 0 20 20" fill="none" xmlns="http://www.w3.org/2000/svg">
<g clip-path="url(#clip0_0_46)">
<path d="M17.4999 9.99993C17.9599 9.99993 18.3374 9.62577 18.2915 9.16827C18.0994 7.25507 17.2516 5.46718 15.8918 4.1077C14.532 2.74822 12.7439 1.9008 10.8307 1.7091C10.3724 1.66327 9.99902 2.04077 9.99902 2.50077V9.16743C9.99902 9.38845 10.0868 9.60041 10.2431 9.75669C10.3994 9.91297 10.6113 10.0008 10.8324 10.0008L17.4999 9.99993Z" stroke="#90A1B9" stroke-width="1.66667" stroke-linecap="round" stroke-linejoin="round"/>
<path d="M17.6752 13.2417C17.145 14.4955 16.3158 15.6002 15.2601 16.4595C14.2043 17.3187 12.9541 17.9063 11.6189 18.1707C10.2836 18.4352 8.90386 18.3685 7.6003 17.9766C6.29673 17.5846 5.10903 16.8793 4.14102 15.9223C3.17302 14.9653 2.45419 13.7857 2.04737 12.4867C1.64055 11.1877 1.55814 9.8088 1.80734 8.47059C2.05653 7.13238 2.62975 5.87559 3.47688 4.81009C4.324 3.74459 5.41924 2.90283 6.66684 2.3584" stroke="#90A1B9" stroke-width="1.66667" stroke-linecap="round" stroke-linejoin="round"/>
</g>
<defs>
<clipPath id="clip0_0_46">
<rect width="20" height="20" fill="white"/>
</clipPath>
</defs>
</svg>
