<svg width="32" height="50" viewBox="0 0 32 50" fill="none" xmlns="http://www.w3.org/2000/svg">
<path d="M27.8333 24.1666H16.1667C15.2462 24.1666 14.5 24.9128 14.5 25.8333V31.6666C14.5 32.5871 15.2462 33.3333 16.1667 33.3333H27.8333C28.7538 33.3333 29.5 32.5871 29.5 31.6666V25.8333C29.5 24.9128 28.7538 24.1666 27.8333 24.1666Z" stroke="#90A1B9" stroke-width="1.66667" stroke-linecap="round" stroke-linejoin="round"/>
<path d="M17.833 24.1666V20.8333C17.833 19.7282 18.272 18.6684 19.0534 17.887C19.8348 17.1056 20.8946 16.6666 21.9997 16.6666C23.1047 16.6666 24.1646 17.1056 24.946 17.887C25.7274 18.6684 26.1663 19.7282 26.1663 20.8333V24.1666" stroke="#90A1B9" stroke-width="1.66667" stroke-linecap="round" stroke-linejoin="round"/>
</svg>
