<svg width="1490" height="84" viewBox="0 0 1490 84" fill="none" xmlns="http://www.w3.org/2000/svg">
<mask id="path-1-inside-1_735_3542" fill="white">
<path d="M0 23C0 10.2975 10.2975 0 23 0H1467C1479.7 0 1490 10.2975 1490 23V58C1490 70.7025 1479.7 81 1467 81H23C10.2974 81 0 70.7025 0 58V23Z"/>
</mask>
<path d="M0 23C0 10.2975 10.2975 0 23 0H1467C1479.7 0 1490 10.2975 1490 23V58C1490 70.7025 1479.7 81 1467 81H23C10.2974 81 0 70.7025 0 58V23Z" fill="white" fill-opacity="0.9"/>
<path d="M0 0H1490H0M1490 58C1490 71.2548 1479.25 82 1466 82H24C10.7452 82 0 71.2548 0 58C0 70.1503 10.2975 80 23 80H1467C1479.7 80 1490 70.1503 1490 58ZM1490 58M0 81V0V81M0 81M1490 0V81V0" fill="#F1F5F9" mask="url(#path-1-inside-1_735_3542)"/>
<path d="M80 30C80 24.4772 84.4772 20 90 20H110C115.523 20 120 24.4772 120 30V50C120 55.5228 115.523 60 110 60H90C84.4772 60 80 55.5228 80 50V30Z" fill="#155DFC"/>
<path d="M108 41C108 46 104.5 48.5 100.34 49.95C100.122 50.0238 99.8855 50.0202 99.67 49.94C95.5 48.5 92 46 92 41V34C92 33.7347 92.1054 33.4804 92.2929 33.2929C92.4804 33.1053 92.7348 33 93 33C95 33 97.5 31.8 99.24 30.28C99.4519 30.099 99.7214 29.9995 100 29.9995C100.279 29.9995 100.548 30.099 100.76 30.28C102.51 31.81 105 33 107 33C107.265 33 107.52 33.1053 107.707 33.2929C107.895 33.4804 108 33.7347 108 34V41Z" stroke="white" stroke-width="2" stroke-linecap="round" stroke-linejoin="round"/>
<path d="M97 40L99 42L103 38" stroke="white" stroke-width="2" stroke-linecap="round" stroke-linejoin="round"/>
<path d="M134.129 48L127.988 30.8203H131.75L136.098 43.5352L140.305 30.8203H143.984L137.832 48H134.129ZM142.681 35.5547H146.185L149.162 44.3906L152.068 35.5547H155.478L151.084 47.5312L150.298 49.6992C150.009 50.4258 149.732 50.9805 149.466 51.3633C149.209 51.7461 148.908 52.0547 148.564 52.2891C148.228 52.5312 147.81 52.7188 147.31 52.8516C146.818 52.9844 146.259 53.0508 145.634 53.0508C145.002 53.0508 144.38 52.9844 143.771 52.8516L143.478 50.2734C143.994 50.375 144.459 50.4258 144.873 50.4258C145.638 50.4258 146.205 50.1992 146.572 49.7461C146.939 49.3008 147.22 48.7305 147.416 48.0352L142.681 35.5547ZM160.152 48H156.859V35.5547H159.917V37.3242C160.441 36.4883 160.909 35.9375 161.323 35.6719C161.745 35.4062 162.222 35.2734 162.753 35.2734C163.503 35.2734 164.226 35.4805 164.921 35.8945L163.902 38.7656C163.347 38.4062 162.831 38.2266 162.355 38.2266C161.894 38.2266 161.503 38.3555 161.183 38.6133C160.862 38.8633 160.609 39.3203 160.421 39.9844C160.241 40.6484 160.152 42.0391 160.152 44.1562V48ZM165.786 30.8203H172.653C174.013 30.8203 175.024 30.8789 175.688 30.9961C176.36 31.1055 176.958 31.3398 177.481 31.6992C178.013 32.0586 178.454 32.5391 178.805 33.1406C179.157 33.7344 179.333 34.4023 179.333 35.1445C179.333 35.9492 179.114 36.6875 178.677 37.3594C178.247 38.0312 177.661 38.5352 176.919 38.8711C177.966 39.1758 178.77 39.6953 179.333 40.4297C179.895 41.1641 180.177 42.0273 180.177 43.0195C180.177 43.8008 179.993 44.5625 179.626 45.3047C179.266 46.0391 178.77 46.6289 178.138 47.0742C177.513 47.5117 176.739 47.7812 175.817 47.8828C175.239 47.9453 173.845 47.9844 171.634 48H165.786V30.8203ZM169.255 33.6797V37.6523H171.528C172.88 37.6523 173.72 37.6328 174.048 37.5938C174.641 37.5234 175.106 37.3203 175.442 36.9844C175.786 36.6406 175.958 36.1914 175.958 35.6367C175.958 35.1055 175.809 34.6758 175.513 34.3477C175.223 34.0117 174.79 33.8086 174.212 33.7383C173.868 33.6992 172.88 33.6797 171.247 33.6797H169.255ZM169.255 40.5117V45.1055H172.466C173.716 45.1055 174.509 45.0703 174.845 45C175.36 44.9062 175.778 44.6797 176.098 44.3203C176.427 43.9531 176.591 43.4648 176.591 42.8555C176.591 42.3398 176.466 41.9023 176.216 41.543C175.966 41.1836 175.602 40.9219 175.126 40.7578C174.657 40.5938 173.634 40.5117 172.055 40.5117H169.255ZM184.955 39.3516L181.967 38.8125C182.303 37.6094 182.881 36.7188 183.702 36.1406C184.522 35.5625 185.741 35.2734 187.358 35.2734C188.827 35.2734 189.92 35.4492 190.639 35.8008C191.358 36.1445 191.862 36.5859 192.151 37.125C192.448 37.6562 192.596 38.6367 192.596 40.0664L192.561 43.9102C192.561 45.0039 192.612 45.8125 192.713 46.3359C192.823 46.8516 193.022 47.4062 193.311 48H190.053C189.967 47.7812 189.862 47.457 189.737 47.0273C189.682 46.832 189.643 46.7031 189.62 46.6406C189.057 47.1875 188.455 47.5977 187.815 47.8711C187.174 48.1445 186.491 48.2812 185.764 48.2812C184.483 48.2812 183.471 47.9336 182.729 47.2383C181.995 46.543 181.627 45.6641 181.627 44.6016C181.627 43.8984 181.795 43.2734 182.131 42.7266C182.467 42.1719 182.936 41.75 183.537 41.4609C184.147 41.1641 185.022 40.9062 186.162 40.6875C187.702 40.3984 188.768 40.1289 189.362 39.8789V39.5508C189.362 38.918 189.205 38.4688 188.893 38.2031C188.58 37.9297 187.991 37.793 187.123 37.793C186.537 37.793 186.08 37.9102 185.752 38.1445C185.424 38.3711 185.159 38.7734 184.955 39.3516ZM189.362 42.0234C188.94 42.1641 188.272 42.332 187.358 42.5273C186.444 42.7227 185.846 42.9141 185.565 43.1016C185.135 43.4062 184.92 43.793 184.92 44.2617C184.92 44.7227 185.092 45.1211 185.436 45.457C185.78 45.793 186.217 45.9609 186.748 45.9609C187.342 45.9609 187.909 45.7656 188.448 45.375C188.846 45.0781 189.108 44.7148 189.233 44.2852C189.319 44.0039 189.362 43.4688 189.362 42.6797V42.0234ZM206.574 48H203.281V41.6484C203.281 40.3047 203.211 39.4375 203.07 39.0469C202.93 38.6484 202.699 38.3398 202.379 38.1211C202.066 37.9023 201.688 37.793 201.242 37.793C200.672 37.793 200.16 37.9492 199.707 38.2617C199.254 38.5742 198.941 38.9883 198.77 39.5039C198.605 40.0195 198.523 40.9727 198.523 42.3633V48H195.23V35.5547H198.289V37.3828C199.375 35.9766 200.742 35.2734 202.391 35.2734C203.117 35.2734 203.781 35.4062 204.383 35.6719C204.984 35.9297 205.438 36.2617 205.742 36.668C206.055 37.0742 206.27 37.5352 206.387 38.0508C206.512 38.5664 206.574 39.3047 206.574 40.2656V48ZM209.209 48V30.8203H212.502V39.9375L216.357 35.5547H220.412L216.158 40.1016L220.716 48H217.166L214.037 42.4102L212.502 44.0156V48H209.209Z" fill="#0F172B"/>
<path d="M581.891 44V32.5469H586.211C586.971 32.5469 587.552 32.5833 587.953 32.6562C588.516 32.75 588.987 32.9297 589.367 33.1953C589.747 33.4557 590.052 33.8229 590.281 34.2969C590.516 34.7708 590.633 35.2917 590.633 35.8594C590.633 36.8333 590.323 37.6589 589.703 38.3359C589.083 39.0078 587.964 39.3438 586.344 39.3438H583.406V44H581.891ZM583.406 37.9922H586.367C587.346 37.9922 588.042 37.8099 588.453 37.4453C588.865 37.0807 589.07 36.5677 589.07 35.9062C589.07 35.4271 588.948 35.0182 588.703 34.6797C588.464 34.3359 588.146 34.1094 587.75 34C587.495 33.9323 587.023 33.8984 586.336 33.8984H583.406V37.9922ZM598.062 41.3281L599.516 41.5078C599.286 42.3568 598.862 43.0156 598.242 43.4844C597.622 43.9531 596.831 44.1875 595.867 44.1875C594.654 44.1875 593.69 43.8151 592.977 43.0703C592.268 42.3203 591.914 41.2708 591.914 39.9219C591.914 38.526 592.273 37.4427 592.992 36.6719C593.711 35.901 594.643 35.5156 595.789 35.5156C596.898 35.5156 597.805 35.8932 598.508 36.6484C599.211 37.4036 599.562 38.4661 599.562 39.8359C599.562 39.9193 599.56 40.0443 599.555 40.2109H593.367C593.419 41.1224 593.677 41.8203 594.141 42.3047C594.604 42.7891 595.182 43.0312 595.875 43.0312C596.391 43.0312 596.831 42.8958 597.195 42.625C597.56 42.3542 597.849 41.9219 598.062 41.3281ZM593.445 39.0547H598.078C598.016 38.3568 597.839 37.8333 597.547 37.4844C597.099 36.9427 596.518 36.6719 595.805 36.6719C595.159 36.6719 594.615 36.888 594.172 37.3203C593.734 37.7526 593.492 38.3307 593.445 39.0547ZM601.273 44V35.7031H602.539V36.9609C602.862 36.3724 603.159 35.9844 603.43 35.7969C603.706 35.6094 604.008 35.5156 604.336 35.5156C604.81 35.5156 605.292 35.6667 605.781 35.9688L605.297 37.2734C604.953 37.0703 604.609 36.9688 604.266 36.9688C603.958 36.9688 603.682 37.0625 603.438 37.25C603.193 37.4323 603.018 37.6875 602.914 38.0156C602.758 38.5156 602.68 39.0625 602.68 39.6562V44H601.273ZM606.055 41.5234L607.445 41.3047C607.523 41.862 607.74 42.2891 608.094 42.5859C608.453 42.8828 608.953 43.0312 609.594 43.0312C610.24 43.0312 610.719 42.901 611.031 42.6406C611.344 42.375 611.5 42.0651 611.5 41.7109C611.5 41.3932 611.362 41.1432 611.086 40.9609C610.893 40.8359 610.414 40.6771 609.648 40.4844C608.617 40.224 607.901 40 607.5 39.8125C607.104 39.6198 606.802 39.3568 606.594 39.0234C606.391 38.6849 606.289 38.3125 606.289 37.9062C606.289 37.5365 606.372 37.1953 606.539 36.8828C606.711 36.5651 606.943 36.3021 607.234 36.0938C607.453 35.9323 607.75 35.7969 608.125 35.6875C608.505 35.5729 608.911 35.5156 609.344 35.5156C609.995 35.5156 610.565 35.6094 611.055 35.7969C611.549 35.9844 611.914 36.2396 612.148 36.5625C612.383 36.8802 612.544 37.3073 612.633 37.8438L611.258 38.0312C611.195 37.6042 611.013 37.2708 610.711 37.0312C610.414 36.7917 609.992 36.6719 609.445 36.6719C608.799 36.6719 608.339 36.7786 608.062 36.9922C607.786 37.2057 607.648 37.4557 607.648 37.7422C607.648 37.9245 607.706 38.0885 607.82 38.2344C607.935 38.3854 608.115 38.5104 608.359 38.6094C608.5 38.6615 608.914 38.7812 609.602 38.9688C610.596 39.2344 611.289 39.4531 611.68 39.625C612.076 39.7917 612.385 40.0365 612.609 40.3594C612.833 40.6823 612.945 41.0833 612.945 41.5625C612.945 42.0312 612.807 42.474 612.531 42.8906C612.26 43.3021 611.867 43.6224 611.352 43.8516C610.836 44.0755 610.253 44.1875 609.602 44.1875C608.523 44.1875 607.701 43.9635 607.133 43.5156C606.57 43.0677 606.211 42.4036 606.055 41.5234ZM614.094 39.8516C614.094 38.3151 614.521 37.1771 615.375 36.4375C616.089 35.8229 616.958 35.5156 617.984 35.5156C619.125 35.5156 620.057 35.8906 620.781 36.6406C621.505 37.3854 621.867 38.4167 621.867 39.7344C621.867 40.8021 621.706 41.6432 621.383 42.2578C621.065 42.8672 620.599 43.3411 619.984 43.6797C619.375 44.0182 618.708 44.1875 617.984 44.1875C616.823 44.1875 615.883 43.8151 615.164 43.0703C614.451 42.3255 614.094 41.2526 614.094 39.8516ZM615.539 39.8516C615.539 40.9141 615.771 41.7109 616.234 42.2422C616.698 42.7682 617.281 43.0312 617.984 43.0312C618.682 43.0312 619.263 42.7656 619.727 42.2344C620.19 41.7031 620.422 40.8932 620.422 39.8047C620.422 38.7786 620.188 38.0026 619.719 37.4766C619.255 36.9453 618.677 36.6797 617.984 36.6797C617.281 36.6797 616.698 36.9427 616.234 37.4688C615.771 37.9948 615.539 38.7891 615.539 39.8516ZM623.523 44V35.7031H624.789V36.8828C625.398 35.9714 626.279 35.5156 627.43 35.5156C627.93 35.5156 628.388 35.6068 628.805 35.7891C629.227 35.9661 629.542 36.2005 629.75 36.4922C629.958 36.7839 630.104 37.1302 630.188 37.5312C630.24 37.7917 630.266 38.2474 630.266 38.8984V44H628.859V38.9531C628.859 38.3802 628.805 37.9531 628.695 37.6719C628.586 37.3854 628.391 37.1589 628.109 36.9922C627.833 36.8203 627.508 36.7344 627.133 36.7344C626.534 36.7344 626.016 36.9245 625.578 37.3047C625.146 37.6849 624.93 38.4062 624.93 39.4688V44H623.523ZM637.844 42.9766C637.323 43.4193 636.82 43.7318 636.336 43.9141C635.857 44.0964 635.341 44.1875 634.789 44.1875C633.878 44.1875 633.177 43.9661 632.688 43.5234C632.198 43.0755 631.953 42.5052 631.953 41.8125C631.953 41.4062 632.044 41.0365 632.227 40.7031C632.414 40.3646 632.656 40.0938 632.953 39.8906C633.255 39.6875 633.594 39.5339 633.969 39.4297C634.245 39.3568 634.661 39.2865 635.219 39.2188C636.354 39.0833 637.19 38.9219 637.727 38.7344C637.732 38.5417 637.734 38.4193 637.734 38.3672C637.734 37.7943 637.602 37.3906 637.336 37.1562C636.977 36.8385 636.443 36.6797 635.734 36.6797C635.073 36.6797 634.583 36.7969 634.266 37.0312C633.953 37.2604 633.721 37.6693 633.57 38.2578L632.195 38.0703C632.32 37.4818 632.526 37.0078 632.812 36.6484C633.099 36.2839 633.513 36.0052 634.055 35.8125C634.596 35.6146 635.224 35.5156 635.938 35.5156C636.646 35.5156 637.221 35.599 637.664 35.7656C638.107 35.9323 638.432 36.1432 638.641 36.3984C638.849 36.6484 638.995 36.9661 639.078 37.3516C639.125 37.5911 639.148 38.0234 639.148 38.6484V40.5234C639.148 41.8307 639.177 42.6589 639.234 43.0078C639.297 43.3516 639.417 43.6823 639.594 44H638.125C637.979 43.7083 637.885 43.3672 637.844 42.9766ZM637.727 39.8359C637.216 40.0443 636.451 40.2214 635.43 40.3672C634.852 40.4505 634.443 40.5443 634.203 40.6484C633.964 40.7526 633.779 40.9062 633.648 41.1094C633.518 41.3073 633.453 41.5286 633.453 41.7734C633.453 42.1484 633.594 42.4609 633.875 42.7109C634.161 42.9609 634.578 43.0859 635.125 43.0859C635.667 43.0859 636.148 42.9688 636.57 42.7344C636.992 42.4948 637.302 42.1693 637.5 41.7578C637.651 41.4401 637.727 40.9714 637.727 40.3516V39.8359ZM641.305 44V32.5469H642.711V44H641.305Z" fill="#45556C"/>
<path d="M675.484 44V32.5469H679.781C680.656 32.5469 681.357 32.6641 681.883 32.8984C682.414 33.1276 682.828 33.4844 683.125 33.9688C683.427 34.4479 683.578 34.9505 683.578 35.4766C683.578 35.9661 683.445 36.4271 683.18 36.8594C682.914 37.2917 682.513 37.6406 681.977 37.9062C682.669 38.1094 683.201 38.4557 683.57 38.9453C683.945 39.4349 684.133 40.013 684.133 40.6797C684.133 41.2161 684.018 41.7161 683.789 42.1797C683.565 42.638 683.286 42.9922 682.953 43.2422C682.62 43.4922 682.201 43.6823 681.695 43.8125C681.195 43.9375 680.581 44 679.852 44H675.484ZM677 37.3594H679.477C680.148 37.3594 680.63 37.3151 680.922 37.2266C681.307 37.112 681.596 36.9219 681.789 36.6562C681.987 36.3906 682.086 36.0573 682.086 35.6562C682.086 35.276 681.995 34.9427 681.812 34.6562C681.63 34.3646 681.37 34.1667 681.031 34.0625C680.693 33.9531 680.112 33.8984 679.289 33.8984H677V37.3594ZM677 42.6484H679.852C680.341 42.6484 680.685 42.6302 680.883 42.5938C681.232 42.5312 681.523 42.4271 681.758 42.2812C681.992 42.1354 682.185 41.9245 682.336 41.6484C682.487 41.3672 682.562 41.0443 682.562 40.6797C682.562 40.2526 682.453 39.8828 682.234 39.5703C682.016 39.2526 681.711 39.0312 681.32 38.9062C680.935 38.776 680.378 38.7109 679.648 38.7109H677V42.6484ZM691.477 44V42.7812C690.831 43.7188 689.953 44.1875 688.844 44.1875C688.354 44.1875 687.896 44.0938 687.469 43.9062C687.047 43.7188 686.732 43.4844 686.523 43.2031C686.32 42.9167 686.177 42.5677 686.094 42.1562C686.036 41.8802 686.008 41.4427 686.008 40.8438V35.7031H687.414V40.3047C687.414 41.0391 687.443 41.5339 687.5 41.7891C687.589 42.1589 687.776 42.4505 688.062 42.6641C688.349 42.8724 688.703 42.9766 689.125 42.9766C689.547 42.9766 689.943 42.8698 690.312 42.6562C690.682 42.4375 690.943 42.1432 691.094 41.7734C691.25 41.3984 691.328 40.8568 691.328 40.1484V35.7031H692.734V44H691.477ZM694.383 41.5234L695.773 41.3047C695.852 41.862 696.068 42.2891 696.422 42.5859C696.781 42.8828 697.281 43.0312 697.922 43.0312C698.568 43.0312 699.047 42.901 699.359 42.6406C699.672 42.375 699.828 42.0651 699.828 41.7109C699.828 41.3932 699.69 41.1432 699.414 40.9609C699.221 40.8359 698.742 40.6771 697.977 40.4844C696.945 40.224 696.229 40 695.828 39.8125C695.432 39.6198 695.13 39.3568 694.922 39.0234C694.719 38.6849 694.617 38.3125 694.617 37.9062C694.617 37.5365 694.701 37.1953 694.867 36.8828C695.039 36.5651 695.271 36.3021 695.562 36.0938C695.781 35.9323 696.078 35.7969 696.453 35.6875C696.833 35.5729 697.24 35.5156 697.672 35.5156C698.323 35.5156 698.893 35.6094 699.383 35.7969C699.878 35.9844 700.242 36.2396 700.477 36.5625C700.711 36.8802 700.872 37.3073 700.961 37.8438L699.586 38.0312C699.523 37.6042 699.341 37.2708 699.039 37.0312C698.742 36.7917 698.32 36.6719 697.773 36.6719C697.128 36.6719 696.667 36.7786 696.391 36.9922C696.115 37.2057 695.977 37.4557 695.977 37.7422C695.977 37.9245 696.034 38.0885 696.148 38.2344C696.263 38.3854 696.443 38.5104 696.688 38.6094C696.828 38.6615 697.242 38.7812 697.93 38.9688C698.924 39.2344 699.617 39.4531 700.008 39.625C700.404 39.7917 700.714 40.0365 700.938 40.3594C701.161 40.6823 701.273 41.0833 701.273 41.5625C701.273 42.0312 701.135 42.474 700.859 42.8906C700.589 43.3021 700.195 43.6224 699.68 43.8516C699.164 44.0755 698.581 44.1875 697.93 44.1875C696.852 44.1875 696.029 43.9635 695.461 43.5156C694.898 43.0677 694.539 42.4036 694.383 41.5234ZM702.953 34.1641V32.5469H704.359V34.1641H702.953ZM702.953 44V35.7031H704.359V44H702.953ZM706.508 44V35.7031H707.773V36.8828C708.383 35.9714 709.263 35.5156 710.414 35.5156C710.914 35.5156 711.372 35.6068 711.789 35.7891C712.211 35.9661 712.526 36.2005 712.734 36.4922C712.943 36.7839 713.089 37.1302 713.172 37.5312C713.224 37.7917 713.25 38.2474 713.25 38.8984V44H711.844V38.9531C711.844 38.3802 711.789 37.9531 711.68 37.6719C711.57 37.3854 711.375 37.1589 711.094 36.9922C710.818 36.8203 710.492 36.7344 710.117 36.7344C709.518 36.7344 709 36.9245 708.562 37.3047C708.13 37.6849 707.914 38.4062 707.914 39.4688V44H706.508ZM721.094 41.3281L722.547 41.5078C722.318 42.3568 721.893 43.0156 721.273 43.4844C720.654 43.9531 719.862 44.1875 718.898 44.1875C717.685 44.1875 716.721 43.8151 716.008 43.0703C715.299 42.3203 714.945 41.2708 714.945 39.9219C714.945 38.526 715.305 37.4427 716.023 36.6719C716.742 35.901 717.674 35.5156 718.82 35.5156C719.93 35.5156 720.836 35.8932 721.539 36.6484C722.242 37.4036 722.594 38.4661 722.594 39.8359C722.594 39.9193 722.591 40.0443 722.586 40.2109H716.398C716.451 41.1224 716.708 41.8203 717.172 42.3047C717.635 42.7891 718.214 43.0312 718.906 43.0312C719.422 43.0312 719.862 42.8958 720.227 42.625C720.591 42.3542 720.88 41.9219 721.094 41.3281ZM716.477 39.0547H721.109C721.047 38.3568 720.87 37.8333 720.578 37.4844C720.13 36.9427 719.549 36.6719 718.836 36.6719C718.19 36.6719 717.646 36.888 717.203 37.3203C716.766 37.7526 716.523 38.3307 716.477 39.0547ZM723.758 41.5234L725.148 41.3047C725.227 41.862 725.443 42.2891 725.797 42.5859C726.156 42.8828 726.656 43.0312 727.297 43.0312C727.943 43.0312 728.422 42.901 728.734 42.6406C729.047 42.375 729.203 42.0651 729.203 41.7109C729.203 41.3932 729.065 41.1432 728.789 40.9609C728.596 40.8359 728.117 40.6771 727.352 40.4844C726.32 40.224 725.604 40 725.203 39.8125C724.807 39.6198 724.505 39.3568 724.297 39.0234C724.094 38.6849 723.992 38.3125 723.992 37.9062C723.992 37.5365 724.076 37.1953 724.242 36.8828C724.414 36.5651 724.646 36.3021 724.938 36.0938C725.156 35.9323 725.453 35.7969 725.828 35.6875C726.208 35.5729 726.615 35.5156 727.047 35.5156C727.698 35.5156 728.268 35.6094 728.758 35.7969C729.253 35.9844 729.617 36.2396 729.852 36.5625C730.086 36.8802 730.247 37.3073 730.336 37.8438L728.961 38.0312C728.898 37.6042 728.716 37.2708 728.414 37.0312C728.117 36.7917 727.695 36.6719 727.148 36.6719C726.503 36.6719 726.042 36.7786 725.766 36.9922C725.49 37.2057 725.352 37.4557 725.352 37.7422C725.352 37.9245 725.409 38.0885 725.523 38.2344C725.638 38.3854 725.818 38.5104 726.062 38.6094C726.203 38.6615 726.617 38.7812 727.305 38.9688C728.299 39.2344 728.992 39.4531 729.383 39.625C729.779 39.7917 730.089 40.0365 730.312 40.3594C730.536 40.6823 730.648 41.0833 730.648 41.5625C730.648 42.0312 730.51 42.474 730.234 42.8906C729.964 43.3021 729.57 43.6224 729.055 43.8516C728.539 44.0755 727.956 44.1875 727.305 44.1875C726.227 44.1875 725.404 43.9635 724.836 43.5156C724.273 43.0677 723.914 42.4036 723.758 41.5234ZM731.758 41.5234L733.148 41.3047C733.227 41.862 733.443 42.2891 733.797 42.5859C734.156 42.8828 734.656 43.0312 735.297 43.0312C735.943 43.0312 736.422 42.901 736.734 42.6406C737.047 42.375 737.203 42.0651 737.203 41.7109C737.203 41.3932 737.065 41.1432 736.789 40.9609C736.596 40.8359 736.117 40.6771 735.352 40.4844C734.32 40.224 733.604 40 733.203 39.8125C732.807 39.6198 732.505 39.3568 732.297 39.0234C732.094 38.6849 731.992 38.3125 731.992 37.9062C731.992 37.5365 732.076 37.1953 732.242 36.8828C732.414 36.5651 732.646 36.3021 732.938 36.0938C733.156 35.9323 733.453 35.7969 733.828 35.6875C734.208 35.5729 734.615 35.5156 735.047 35.5156C735.698 35.5156 736.268 35.6094 736.758 35.7969C737.253 35.9844 737.617 36.2396 737.852 36.5625C738.086 36.8802 738.247 37.3073 738.336 37.8438L736.961 38.0312C736.898 37.6042 736.716 37.2708 736.414 37.0312C736.117 36.7917 735.695 36.6719 735.148 36.6719C734.503 36.6719 734.042 36.7786 733.766 36.9922C733.49 37.2057 733.352 37.4557 733.352 37.7422C733.352 37.9245 733.409 38.0885 733.523 38.2344C733.638 38.3854 733.818 38.5104 734.062 38.6094C734.203 38.6615 734.617 38.7812 735.305 38.9688C736.299 39.2344 736.992 39.4531 737.383 39.625C737.779 39.7917 738.089 40.0365 738.312 40.3594C738.536 40.6823 738.648 41.0833 738.648 41.5625C738.648 42.0312 738.51 42.474 738.234 42.8906C737.964 43.3021 737.57 43.6224 737.055 43.8516C736.539 44.0755 735.956 44.1875 735.305 44.1875C734.227 44.1875 733.404 43.9635 732.836 43.5156C732.273 43.0677 731.914 42.4036 731.758 41.5234Z" fill="#45556C"/>
<path d="M768.008 44L772.406 32.5469H774.039L778.727 44H777L775.664 40.5312H770.875L769.617 44H768.008ZM771.312 39.2969H775.195L774 36.125C773.635 35.1615 773.365 34.3698 773.188 33.75C773.042 34.4844 772.836 35.2135 772.57 35.9375L771.312 39.2969ZM781.055 44H779.75V32.5469H781.156V36.6328C781.75 35.888 782.508 35.5156 783.43 35.5156C783.94 35.5156 784.422 35.6198 784.875 35.8281C785.333 36.0312 785.708 36.3203 786 36.6953C786.297 37.0651 786.529 37.513 786.695 38.0391C786.862 38.5651 786.945 39.1276 786.945 39.7266C786.945 41.1484 786.594 42.2474 785.891 43.0234C785.188 43.7995 784.344 44.1875 783.359 44.1875C782.38 44.1875 781.612 43.7786 781.055 42.9609V44ZM781.039 39.7891C781.039 40.7839 781.174 41.5026 781.445 41.9453C781.888 42.6693 782.487 43.0312 783.242 43.0312C783.857 43.0312 784.388 42.7656 784.836 42.2344C785.284 41.6979 785.508 40.901 785.508 39.8438C785.508 38.7604 785.292 37.9609 784.859 37.4453C784.432 36.9297 783.914 36.6719 783.305 36.6719C782.69 36.6719 782.159 36.9401 781.711 37.4766C781.263 38.0078 781.039 38.7786 781.039 39.7891ZM788.141 39.8516C788.141 38.3151 788.568 37.1771 789.422 36.4375C790.135 35.8229 791.005 35.5156 792.031 35.5156C793.172 35.5156 794.104 35.8906 794.828 36.6406C795.552 37.3854 795.914 38.4167 795.914 39.7344C795.914 40.8021 795.753 41.6432 795.43 42.2578C795.112 42.8672 794.646 43.3411 794.031 43.6797C793.422 44.0182 792.755 44.1875 792.031 44.1875C790.87 44.1875 789.93 43.8151 789.211 43.0703C788.497 42.3255 788.141 41.2526 788.141 39.8516ZM789.586 39.8516C789.586 40.9141 789.818 41.7109 790.281 42.2422C790.745 42.7682 791.328 43.0312 792.031 43.0312C792.729 43.0312 793.31 42.7656 793.773 42.2344C794.237 41.7031 794.469 40.8932 794.469 39.8047C794.469 38.7786 794.234 38.0026 793.766 37.4766C793.302 36.9453 792.724 36.6797 792.031 36.6797C791.328 36.6797 790.745 36.9427 790.281 37.4688C789.818 37.9948 789.586 38.7891 789.586 39.8516ZM803.008 44V42.7812C802.362 43.7188 801.484 44.1875 800.375 44.1875C799.885 44.1875 799.427 44.0938 799 43.9062C798.578 43.7188 798.263 43.4844 798.055 43.2031C797.852 42.9167 797.708 42.5677 797.625 42.1562C797.568 41.8802 797.539 41.4427 797.539 40.8438V35.7031H798.945V40.3047C798.945 41.0391 798.974 41.5339 799.031 41.7891C799.12 42.1589 799.307 42.4505 799.594 42.6641C799.88 42.8724 800.234 42.9766 800.656 42.9766C801.078 42.9766 801.474 42.8698 801.844 42.6562C802.214 42.4375 802.474 42.1432 802.625 41.7734C802.781 41.3984 802.859 40.8568 802.859 40.1484V35.7031H804.266V44H803.008ZM809.547 42.7422L809.75 43.9844C809.354 44.0677 809 44.1094 808.688 44.1094C808.177 44.1094 807.781 44.0286 807.5 43.8672C807.219 43.7057 807.021 43.4948 806.906 43.2344C806.792 42.9688 806.734 42.4141 806.734 41.5703V36.7969H805.703V35.7031H806.734V33.6484L808.133 32.8047V35.7031H809.547V36.7969H808.133V41.6484C808.133 42.0495 808.156 42.3073 808.203 42.4219C808.255 42.5365 808.336 42.6276 808.445 42.6953C808.56 42.763 808.721 42.7969 808.93 42.7969C809.086 42.7969 809.292 42.7786 809.547 42.7422ZM823.078 32.5469H824.594V39.1641C824.594 40.3151 824.464 41.2292 824.203 41.9062C823.943 42.5833 823.471 43.1354 822.789 43.5625C822.112 43.9844 821.221 44.1953 820.117 44.1953C819.044 44.1953 818.167 44.0104 817.484 43.6406C816.802 43.2708 816.315 42.737 816.023 42.0391C815.732 41.3359 815.586 40.3776 815.586 39.1641V32.5469H817.102V39.1562C817.102 40.151 817.193 40.8854 817.375 41.3594C817.562 41.8281 817.88 42.1901 818.328 42.4453C818.781 42.7005 819.333 42.8281 819.984 42.8281C821.099 42.8281 821.893 42.5755 822.367 42.0703C822.841 41.5651 823.078 40.5938 823.078 39.1562V32.5469ZM826.383 41.5234L827.773 41.3047C827.852 41.862 828.068 42.2891 828.422 42.5859C828.781 42.8828 829.281 43.0312 829.922 43.0312C830.568 43.0312 831.047 42.901 831.359 42.6406C831.672 42.375 831.828 42.0651 831.828 41.7109C831.828 41.3932 831.69 41.1432 831.414 40.9609C831.221 40.8359 830.742 40.6771 829.977 40.4844C828.945 40.224 828.229 40 827.828 39.8125C827.432 39.6198 827.13 39.3568 826.922 39.0234C826.719 38.6849 826.617 38.3125 826.617 37.9062C826.617 37.5365 826.701 37.1953 826.867 36.8828C827.039 36.5651 827.271 36.3021 827.562 36.0938C827.781 35.9323 828.078 35.7969 828.453 35.6875C828.833 35.5729 829.24 35.5156 829.672 35.5156C830.323 35.5156 830.893 35.6094 831.383 35.7969C831.878 35.9844 832.242 36.2396 832.477 36.5625C832.711 36.8802 832.872 37.3073 832.961 37.8438L831.586 38.0312C831.523 37.6042 831.341 37.2708 831.039 37.0312C830.742 36.7917 830.32 36.6719 829.773 36.6719C829.128 36.6719 828.667 36.7786 828.391 36.9922C828.115 37.2057 827.977 37.4557 827.977 37.7422C827.977 37.9245 828.034 38.0885 828.148 38.2344C828.263 38.3854 828.443 38.5104 828.688 38.6094C828.828 38.6615 829.242 38.7812 829.93 38.9688C830.924 39.2344 831.617 39.4531 832.008 39.625C832.404 39.7917 832.714 40.0365 832.938 40.3594C833.161 40.6823 833.273 41.0833 833.273 41.5625C833.273 42.0312 833.135 42.474 832.859 42.8906C832.589 43.3021 832.195 43.6224 831.68 43.8516C831.164 44.0755 830.581 44.1875 829.93 44.1875C828.852 44.1875 828.029 43.9635 827.461 43.5156C826.898 43.0677 826.539 42.4036 826.383 41.5234Z" fill="#45556C"/>
<path d="M868.359 40.3203L869.789 40.1953C869.857 40.7682 870.013 41.2396 870.258 41.6094C870.508 41.974 870.893 42.2708 871.414 42.5C871.935 42.724 872.521 42.8359 873.172 42.8359C873.75 42.8359 874.26 42.75 874.703 42.5781C875.146 42.4062 875.474 42.1719 875.688 41.875C875.906 41.5729 876.016 41.2448 876.016 40.8906C876.016 40.5312 875.911 40.2188 875.703 39.9531C875.495 39.6823 875.151 39.4557 874.672 39.2734C874.365 39.1536 873.685 38.9688 872.633 38.7188C871.581 38.4635 870.844 38.224 870.422 38C869.875 37.7135 869.466 37.3594 869.195 36.9375C868.93 36.5104 868.797 36.0339 868.797 35.5078C868.797 34.9297 868.961 34.3906 869.289 33.8906C869.617 33.3854 870.096 33.0026 870.727 32.7422C871.357 32.4818 872.057 32.3516 872.828 32.3516C873.677 32.3516 874.424 32.4896 875.07 32.7656C875.721 33.0365 876.221 33.4375 876.57 33.9688C876.919 34.5 877.107 35.1016 877.133 35.7734L875.68 35.8828C875.602 35.1589 875.336 34.612 874.883 34.2422C874.435 33.8724 873.771 33.6875 872.891 33.6875C871.974 33.6875 871.305 33.8568 870.883 34.1953C870.466 34.5286 870.258 34.9323 870.258 35.4062C870.258 35.8177 870.406 36.1562 870.703 36.4219C870.995 36.6875 871.755 36.9609 872.984 37.2422C874.219 37.5182 875.065 37.7604 875.523 37.9688C876.19 38.276 876.682 38.6667 877 39.1406C877.318 39.6094 877.477 40.151 877.477 40.7656C877.477 41.375 877.302 41.9505 876.953 42.4922C876.604 43.0286 876.102 43.4479 875.445 43.75C874.794 44.0469 874.06 44.1953 873.242 44.1953C872.206 44.1953 871.336 44.0443 870.633 43.7422C869.935 43.4401 869.385 42.987 868.984 42.3828C868.589 41.7734 868.38 41.0859 868.359 40.3203ZM884.805 44V42.7812C884.159 43.7188 883.281 44.1875 882.172 44.1875C881.682 44.1875 881.224 44.0938 880.797 43.9062C880.375 43.7188 880.06 43.4844 879.852 43.2031C879.648 42.9167 879.505 42.5677 879.422 42.1562C879.365 41.8802 879.336 41.4427 879.336 40.8438V35.7031H880.742V40.3047C880.742 41.0391 880.771 41.5339 880.828 41.7891C880.917 42.1589 881.104 42.4505 881.391 42.6641C881.677 42.8724 882.031 42.9766 882.453 42.9766C882.875 42.9766 883.271 42.8698 883.641 42.6562C884.01 42.4375 884.271 42.1432 884.422 41.7734C884.578 41.3984 884.656 40.8568 884.656 40.1484V35.7031H886.062V44H884.805ZM888.273 47.1797V35.7031H889.555V36.7812C889.857 36.3594 890.198 36.0443 890.578 35.8359C890.958 35.6224 891.419 35.5156 891.961 35.5156C892.669 35.5156 893.294 35.6979 893.836 36.0625C894.378 36.4271 894.786 36.9427 895.062 37.6094C895.339 38.2708 895.477 38.9974 895.477 39.7891C895.477 40.638 895.323 41.4036 895.016 42.0859C894.714 42.763 894.271 43.2839 893.688 43.6484C893.109 44.0078 892.5 44.1875 891.859 44.1875C891.391 44.1875 890.969 44.0885 890.594 43.8906C890.224 43.6927 889.919 43.4427 889.68 43.1406V47.1797H888.273ZM889.547 39.8984C889.547 40.9661 889.763 41.7552 890.195 42.2656C890.628 42.776 891.151 43.0312 891.766 43.0312C892.391 43.0312 892.924 42.7682 893.367 42.2422C893.815 41.7109 894.039 40.8906 894.039 39.7812C894.039 38.724 893.82 37.9323 893.383 37.4062C892.951 36.8802 892.432 36.6172 891.828 36.6172C891.229 36.6172 890.698 36.8984 890.234 37.4609C889.776 38.0182 889.547 38.8307 889.547 39.8984ZM897.18 47.1797V35.7031H898.461V36.7812C898.763 36.3594 899.104 36.0443 899.484 35.8359C899.865 35.6224 900.326 35.5156 900.867 35.5156C901.576 35.5156 902.201 35.6979 902.742 36.0625C903.284 36.4271 903.693 36.9427 903.969 37.6094C904.245 38.2708 904.383 38.9974 904.383 39.7891C904.383 40.638 904.229 41.4036 903.922 42.0859C903.62 42.763 903.177 43.2839 902.594 43.6484C902.016 44.0078 901.406 44.1875 900.766 44.1875C900.297 44.1875 899.875 44.0885 899.5 43.8906C899.13 43.6927 898.826 43.4427 898.586 43.1406V47.1797H897.18ZM898.453 39.8984C898.453 40.9661 898.669 41.7552 899.102 42.2656C899.534 42.776 900.057 43.0312 900.672 43.0312C901.297 43.0312 901.831 42.7682 902.273 42.2422C902.721 41.7109 902.945 40.8906 902.945 39.7812C902.945 38.724 902.727 37.9323 902.289 37.4062C901.857 36.8802 901.339 36.6172 900.734 36.6172C900.135 36.6172 899.604 36.8984 899.141 37.4609C898.682 38.0182 898.453 38.8307 898.453 39.8984ZM905.562 39.8516C905.562 38.3151 905.99 37.1771 906.844 36.4375C907.557 35.8229 908.427 35.5156 909.453 35.5156C910.594 35.5156 911.526 35.8906 912.25 36.6406C912.974 37.3854 913.336 38.4167 913.336 39.7344C913.336 40.8021 913.174 41.6432 912.852 42.2578C912.534 42.8672 912.068 43.3411 911.453 43.6797C910.844 44.0182 910.177 44.1875 909.453 44.1875C908.292 44.1875 907.352 43.8151 906.633 43.0703C905.919 42.3255 905.562 41.2526 905.562 39.8516ZM907.008 39.8516C907.008 40.9141 907.24 41.7109 907.703 42.2422C908.167 42.7682 908.75 43.0312 909.453 43.0312C910.151 43.0312 910.732 42.7656 911.195 42.2344C911.659 41.7031 911.891 40.8932 911.891 39.8047C911.891 38.7786 911.656 38.0026 911.188 37.4766C910.724 36.9453 910.146 36.6797 909.453 36.6797C908.75 36.6797 908.167 36.9427 907.703 37.4688C907.24 37.9948 907.008 38.7891 907.008 39.8516ZM914.977 44V35.7031H916.242V36.9609C916.565 36.3724 916.862 35.9844 917.133 35.7969C917.409 35.6094 917.711 35.5156 918.039 35.5156C918.513 35.5156 918.995 35.6667 919.484 35.9688L919 37.2734C918.656 37.0703 918.312 36.9688 917.969 36.9688C917.661 36.9688 917.385 37.0625 917.141 37.25C916.896 37.4323 916.721 37.6875 916.617 38.0156C916.461 38.5156 916.383 39.0625 916.383 39.6562V44H914.977ZM923.391 42.7422L923.594 43.9844C923.198 44.0677 922.844 44.1094 922.531 44.1094C922.021 44.1094 921.625 44.0286 921.344 43.8672C921.062 43.7057 920.865 43.4948 920.75 43.2344C920.635 42.9688 920.578 42.4141 920.578 41.5703V36.7969H919.547V35.7031H920.578V33.6484L921.977 32.8047V35.7031H923.391V36.7969H921.977V41.6484C921.977 42.0495 922 42.3073 922.047 42.4219C922.099 42.5365 922.18 42.6276 922.289 42.6953C922.404 42.763 922.565 42.7969 922.773 42.7969C922.93 42.7969 923.135 42.7786 923.391 42.7422Z" fill="#45556C"/>
<g filter="url(#filter0_dd_735_3542)">
<path d="M1258.22 40C1258.22 27.8497 1268.07 18 1280.22 18H1387.98C1400.13 18 1409.98 27.8497 1409.98 40C1409.98 52.1503 1400.13 62 1387.98 62H1280.22C1268.07 62 1258.22 52.1503 1258.22 40Z" fill="#0F172B" shape-rendering="crispEdges"/>
<path d="M1281 38.3438C1281 37.1771 1281.17 36.1979 1281.52 35.4062C1281.78 34.8229 1282.14 34.2995 1282.59 33.8359C1283.04 33.3724 1283.53 33.0286 1284.07 32.8047C1284.78 32.5026 1285.61 32.3516 1286.54 32.3516C1288.23 32.3516 1289.58 32.875 1290.59 33.9219C1291.6 34.9688 1292.11 36.4245 1292.11 38.2891C1292.11 40.138 1291.61 41.5859 1290.6 42.6328C1289.6 43.6745 1288.25 44.1953 1286.57 44.1953C1284.87 44.1953 1283.51 43.6771 1282.51 42.6406C1281.5 41.599 1281 40.1667 1281 38.3438ZM1283.38 38.2656C1283.38 39.5625 1283.68 40.5469 1284.28 41.2188C1284.88 41.8854 1285.64 42.2188 1286.56 42.2188C1287.48 42.2188 1288.24 41.888 1288.83 41.2266C1289.42 40.5599 1289.72 39.5625 1289.72 38.2344C1289.72 36.9219 1289.43 35.9427 1288.85 35.2969C1288.28 34.651 1287.52 34.3281 1286.56 34.3281C1285.61 34.3281 1284.84 34.6562 1284.26 35.3125C1283.67 35.9635 1283.38 36.9479 1283.38 38.2656ZM1293.84 35.7031H1295.89V36.9219C1296.16 36.5052 1296.52 36.1667 1296.97 35.9062C1297.42 35.6458 1297.92 35.5156 1298.48 35.5156C1299.44 35.5156 1300.26 35.8932 1300.93 36.6484C1301.6 37.4036 1301.94 38.4557 1301.94 39.8047C1301.94 41.1901 1301.6 42.2682 1300.92 43.0391C1300.24 43.8047 1299.42 44.1875 1298.46 44.1875C1298 44.1875 1297.59 44.0964 1297.21 43.9141C1296.84 43.7318 1296.45 43.4193 1296.04 42.9766V47.1562H1293.84V35.7031ZM1296.02 39.7109C1296.02 40.6432 1296.2 41.3333 1296.57 41.7812C1296.94 42.224 1297.39 42.4453 1297.92 42.4453C1298.43 42.4453 1298.86 42.2422 1299.2 41.8359C1299.53 41.4245 1299.7 40.7526 1299.7 39.8203C1299.7 38.9505 1299.53 38.3047 1299.18 37.8828C1298.83 37.4609 1298.4 37.25 1297.88 37.25C1297.35 37.25 1296.9 37.4583 1296.55 37.875C1296.19 38.2865 1296.02 38.8984 1296.02 39.7109ZM1308.49 41.3594L1310.68 41.7266C1310.4 42.5286 1309.95 43.1406 1309.34 43.5625C1308.74 43.9792 1307.98 44.1875 1307.07 44.1875C1305.63 44.1875 1304.56 43.7161 1303.87 42.7734C1303.32 42.0182 1303.05 41.0651 1303.05 39.9141C1303.05 38.5391 1303.41 37.4635 1304.12 36.6875C1304.84 35.9062 1305.75 35.5156 1306.85 35.5156C1308.09 35.5156 1309.06 35.9245 1309.77 36.7422C1310.49 37.5547 1310.83 38.8021 1310.8 40.4844H1305.3C1305.31 41.1354 1305.49 41.6432 1305.83 42.0078C1306.17 42.3672 1306.59 42.5469 1307.09 42.5469C1307.44 42.5469 1307.73 42.4531 1307.96 42.2656C1308.2 42.0781 1308.37 41.776 1308.49 41.3594ZM1308.62 39.1406C1308.6 38.5052 1308.44 38.0234 1308.12 37.6953C1307.81 37.362 1307.43 37.1953 1306.98 37.1953C1306.51 37.1953 1306.11 37.3698 1305.8 37.7188C1305.48 38.0677 1305.33 38.5417 1305.34 39.1406H1308.62ZM1320.14 44H1317.95V39.7656C1317.95 38.8698 1317.9 38.2917 1317.8 38.0312C1317.71 37.7656 1317.56 37.5599 1317.34 37.4141C1317.14 37.2682 1316.88 37.1953 1316.59 37.1953C1316.21 37.1953 1315.86 37.2995 1315.56 37.5078C1315.26 37.7161 1315.05 37.9922 1314.94 38.3359C1314.83 38.6797 1314.77 39.3151 1314.77 40.2422V44H1312.58V35.7031H1314.62V36.9219C1315.34 35.9844 1316.25 35.5156 1317.35 35.5156C1317.84 35.5156 1318.28 35.6042 1318.68 35.7812C1319.08 35.9531 1319.38 36.1745 1319.59 36.4453C1319.79 36.7161 1319.94 37.0234 1320.02 37.3672C1320.1 37.7109 1320.14 38.2031 1320.14 38.8438V44ZM1336.58 44H1334.06L1333.06 41.3984H1328.48L1327.54 44H1325.09L1329.55 32.5469H1331.99L1336.58 44ZM1332.32 39.4688L1330.74 35.2188L1329.2 39.4688H1332.32ZM1345.03 38.1562L1342.87 38.5469C1342.79 38.1146 1342.63 37.7891 1342.37 37.5703C1342.11 37.3516 1341.78 37.2422 1341.37 37.2422C1340.82 37.2422 1340.38 37.4323 1340.05 37.8125C1339.73 38.1875 1339.57 38.8177 1339.57 39.7031C1339.57 40.6875 1339.73 41.3828 1340.06 41.7891C1340.4 42.1953 1340.84 42.3984 1341.4 42.3984C1341.82 42.3984 1342.16 42.2812 1342.42 42.0469C1342.69 41.8073 1342.88 41.3984 1342.98 40.8203L1345.14 41.1875C1344.92 42.1771 1344.49 42.9245 1343.85 43.4297C1343.22 43.9349 1342.36 44.1875 1341.3 44.1875C1340.08 44.1875 1339.11 43.8047 1338.39 43.0391C1337.67 42.2734 1337.31 41.2135 1337.31 39.8594C1337.31 38.4896 1337.67 37.4245 1338.4 36.6641C1339.12 35.8984 1340.1 35.5156 1341.34 35.5156C1342.35 35.5156 1343.15 35.7344 1343.74 36.1719C1344.34 36.6042 1344.77 37.2656 1345.03 38.1562ZM1353.94 38.1562L1351.77 38.5469C1351.7 38.1146 1351.53 37.7891 1351.27 37.5703C1351.02 37.3516 1350.68 37.2422 1350.27 37.2422C1349.73 37.2422 1349.29 37.4323 1348.96 37.8125C1348.64 38.1875 1348.48 38.8177 1348.48 39.7031C1348.48 40.6875 1348.64 41.3828 1348.97 41.7891C1349.3 42.1953 1349.75 42.3984 1350.3 42.3984C1350.72 42.3984 1351.06 42.2812 1351.33 42.0469C1351.59 41.8073 1351.78 41.3984 1351.89 40.8203L1354.05 41.1875C1353.82 42.1771 1353.39 42.9245 1352.76 43.4297C1352.12 43.9349 1351.27 44.1875 1350.2 44.1875C1348.99 44.1875 1348.02 43.8047 1347.3 43.0391C1346.58 42.2734 1346.22 41.2135 1346.22 39.8594C1346.22 38.4896 1346.58 37.4245 1347.3 36.6641C1348.03 35.8984 1349.01 35.5156 1350.24 35.5156C1351.25 35.5156 1352.05 35.7344 1352.65 36.1719C1353.25 36.6042 1353.68 37.2656 1353.94 38.1562ZM1355.1 39.7344C1355.1 39.0052 1355.28 38.2995 1355.64 37.6172C1356 36.9349 1356.51 36.4141 1357.16 36.0547C1357.83 35.6953 1358.56 35.5156 1359.38 35.5156C1360.63 35.5156 1361.66 35.9245 1362.46 36.7422C1363.26 37.5547 1363.66 38.5833 1363.66 39.8281C1363.66 41.0833 1363.26 42.125 1362.45 42.9531C1361.64 43.776 1360.62 44.1875 1359.39 44.1875C1358.63 44.1875 1357.9 44.0156 1357.21 43.6719C1356.52 43.3281 1356 42.8255 1355.64 42.1641C1355.28 41.4974 1355.1 40.6875 1355.1 39.7344ZM1357.35 39.8516C1357.35 40.6745 1357.55 41.3047 1357.94 41.7422C1358.33 42.1797 1358.81 42.3984 1359.38 42.3984C1359.96 42.3984 1360.43 42.1797 1360.82 41.7422C1361.21 41.3047 1361.41 40.6693 1361.41 39.8359C1361.41 39.0234 1361.21 38.3984 1360.82 37.9609C1360.43 37.5234 1359.96 37.3047 1359.38 37.3047C1358.81 37.3047 1358.33 37.5234 1357.94 37.9609C1357.55 38.3984 1357.35 39.0286 1357.35 39.8516ZM1370.85 44V42.7578C1370.55 43.2005 1370.15 43.5495 1369.66 43.8047C1369.17 44.0599 1368.65 44.1875 1368.1 44.1875C1367.54 44.1875 1367.04 44.0651 1366.6 43.8203C1366.16 43.5755 1365.84 43.2318 1365.64 42.7891C1365.44 42.3464 1365.34 41.7344 1365.34 40.9531V35.7031H1367.54V39.5156C1367.54 40.6823 1367.58 41.3984 1367.66 41.6641C1367.74 41.9245 1367.89 42.1328 1368.1 42.2891C1368.32 42.4401 1368.59 42.5156 1368.91 42.5156C1369.29 42.5156 1369.62 42.4141 1369.92 42.2109C1370.22 42.0026 1370.42 41.7474 1370.53 41.4453C1370.64 41.138 1370.7 40.3906 1370.7 39.2031V35.7031H1372.89V44H1370.85ZM1382.72 44H1380.52V39.7656C1380.52 38.8698 1380.48 38.2917 1380.38 38.0312C1380.29 37.7656 1380.14 37.5599 1379.92 37.4141C1379.71 37.2682 1379.46 37.1953 1379.16 37.1953C1378.78 37.1953 1378.44 37.2995 1378.14 37.5078C1377.84 37.7161 1377.63 37.9922 1377.52 38.3359C1377.41 38.6797 1377.35 39.3151 1377.35 40.2422V44H1375.16V35.7031H1377.2V36.9219C1377.92 35.9844 1378.83 35.5156 1379.93 35.5156C1380.41 35.5156 1380.86 35.6042 1381.26 35.7812C1381.66 35.9531 1381.96 36.1745 1382.16 36.4453C1382.37 36.7161 1382.52 37.0234 1382.59 37.3672C1382.68 37.7109 1382.72 38.2031 1382.72 38.8438V44ZM1388.76 35.7031V37.4531H1387.26V40.7969C1387.26 41.474 1387.27 41.8698 1387.3 41.9844C1387.33 42.0938 1387.39 42.1849 1387.49 42.2578C1387.6 42.3307 1387.72 42.3672 1387.87 42.3672C1388.07 42.3672 1388.36 42.2969 1388.75 42.1562L1388.94 43.8594C1388.43 44.0781 1387.85 44.1875 1387.2 44.1875C1386.81 44.1875 1386.45 44.1224 1386.13 43.9922C1385.82 43.8568 1385.58 43.6849 1385.43 43.4766C1385.28 43.263 1385.18 42.9766 1385.12 42.6172C1385.08 42.362 1385.05 41.8464 1385.05 41.0703V37.4531H1384.05V35.7031H1385.05V34.0547L1387.26 32.7734V35.7031H1388.76Z" fill="white"/>
</g>
<defs>
<filter id="filter0_dd_735_3542" x="1246.22" y="16" width="175.766" height="68" filterUnits="userSpaceOnUse" color-interpolation-filters="sRGB">
<feFlood flood-opacity="0" result="BackgroundImageFix"/>
<feColorMatrix in="SourceAlpha" type="matrix" values="0 0 0 0 0 0 0 0 0 0 0 0 0 0 0 0 0 0 127 0" result="hardAlpha"/>
<feMorphology radius="4" operator="erode" in="SourceAlpha" result="effect1_dropShadow_735_3542"/>
<feOffset dy="4"/>
<feGaussianBlur stdDeviation="3"/>
<feComposite in2="hardAlpha" operator="out"/>
<feColorMatrix type="matrix" values="0 0 0 0 0 0 0 0 0 0 0 0 0 0 0 0 0 0 0.1 0"/>
<feBlend mode="normal" in2="BackgroundImageFix" result="effect1_dropShadow_735_3542"/>
<feColorMatrix in="SourceAlpha" type="matrix" values="0 0 0 0 0 0 0 0 0 0 0 0 0 0 0 0 0 0 127 0" result="hardAlpha"/>
<feMorphology radius="3" operator="erode" in="SourceAlpha" result="effect2_dropShadow_735_3542"/>
<feOffset dy="10"/>
<feGaussianBlur stdDeviation="7.5"/>
<feComposite in2="hardAlpha" operator="out"/>
<feColorMatrix type="matrix" values="0 0 0 0 0 0 0 0 0 0 0 0 0 0 0 0 0 0 0.1 0"/>
<feBlend mode="normal" in2="effect1_dropShadow_735_3542" result="effect2_dropShadow_735_3542"/>
<feBlend mode="normal" in="SourceGraphic" in2="effect2_dropShadow_735_3542" result="shape"/>
</filter>
</defs>
</svg>
