<svg width="32" height="32" viewBox="0 0 32 32" fill="none" xmlns="http://www.w3.org/2000/svg">
<path d="M24.0002 2.66669H8.00016C6.5274 2.66669 5.3335 3.86059 5.3335 5.33335V26.6667C5.3335 28.1394 6.5274 29.3334 8.00016 29.3334H24.0002C25.4729 29.3334 26.6668 28.1394 26.6668 26.6667V5.33335C26.6668 3.86059 25.4729 2.66669 24.0002 2.66669Z" stroke="white" stroke-width="2.66667" stroke-linecap="round" stroke-linejoin="round"/>
<path d="M12 29.3333V24H20V29.3333" stroke="white" stroke-width="2.66667" stroke-linecap="round" stroke-linejoin="round"/>
<path d="M10.6665 8H10.6798" stroke="white" stroke-width="2.66667" stroke-linecap="round" stroke-linejoin="round"/>
<path d="M21.3335 8H21.3468" stroke="white" stroke-width="2.66667" stroke-linecap="round" stroke-linejoin="round"/>
<path d="M16 8H16.0133" stroke="white" stroke-width="2.66667" stroke-linecap="round" stroke-linejoin="round"/>
<path d="M16 13.3333H16.0133" stroke="white" stroke-width="2.66667" stroke-linecap="round" stroke-linejoin="round"/>
<path d="M16 18.6667H16.0133" stroke="white" stroke-width="2.66667" stroke-linecap="round" stroke-linejoin="round"/>
<path d="M21.3335 13.3333H21.3468" stroke="white" stroke-width="2.66667" stroke-linecap="round" stroke-linejoin="round"/>
<path d="M21.3335 18.6667H21.3468" stroke="white" stroke-width="2.66667" stroke-linecap="round" stroke-linejoin="round"/>
<path d="M10.6665 13.3333H10.6798" stroke="white" stroke-width="2.66667" stroke-linecap="round" stroke-linejoin="round"/>
<path d="M10.6665 18.6667H10.6798" stroke="white" stroke-width="2.66667" stroke-linecap="round" stroke-linejoin="round"/>
</svg>
